<svg preserveAspectRatio="none" width="100%" height="100%" overflow="visible" style="display: block;" viewBox="0 0 8.46429 10.1785" fill="none" xmlns="http://www.w3.org/2000/svg">
<path id="Vector (Stroke)" fill-rule="evenodd" clip-rule="evenodd" d="M4.23214 0.75C3.30862 0.75 2.42292 1.11687 1.7699 1.7699C1.11687 2.42292 0.75 3.30862 0.75 4.23214C0.75 5.58142 1.62644 6.88284 2.5758 7.88495C3.04282 8.37791 3.51111 8.7813 3.86306 9.06156C4.0097 9.17832 4.13562 9.2733 4.23214 9.34405C4.32867 9.2733 4.45459 9.17832 4.60122 9.06156C4.95318 8.7813 5.42147 8.37791 5.88848 7.88495C6.83785 6.88284 7.71429 5.58142 7.71429 4.23214C7.71429 3.30862 7.34742 2.42292 6.69439 1.7699C6.04136 1.11687 5.15567 0.75 4.23214 0.75ZM4.23214 9.80357C4.02413 10.1156 4.02403 10.1155 4.02392 10.1155L4.02277 10.1147L4.02001 10.1128L4.01038 10.1063C4.00217 10.1007 3.9904 10.0927 3.97531 10.0822C3.94515 10.0613 3.90169 10.0308 3.84685 9.99123C3.7372 9.91203 3.58179 9.79632 3.39587 9.64827C3.02461 9.35263 2.52861 8.92566 2.03134 8.40076C1.05213 7.36716 0 5.88287 0 4.23214C2.98023e-08 3.10971 0.445885 2.03325 1.23957 1.23957C2.03325 0.445885 3.10971 0 4.23214 0C5.35458 0 6.43104 0.445885 7.22472 1.23957C8.0184 2.03325 8.46429 3.10971 8.46429 4.23214C8.46429 5.88287 7.41215 7.36716 6.43295 8.40076C5.93568 8.92566 5.43968 9.35263 5.06842 9.64827C4.88249 9.79632 4.72709 9.91203 4.61744 9.99123C4.56259 10.0308 4.51914 10.0613 4.48897 10.0822C4.47389 10.0927 4.46212 10.1007 4.45391 10.1063L4.44428 10.1128L4.44152 10.1147L4.44066 10.1153C4.44055 10.1153 4.44016 10.1156 4.23214 9.80357ZM4.23214 9.80357L4.44016 10.1156C4.31419 10.1996 4.14988 10.1994 4.02392 10.1155L4.23214 9.80357ZM4.23214 3.32143C3.72917 3.32143 3.32143 3.72917 3.32143 4.23214C3.32143 4.73512 3.72917 5.14286 4.23214 5.14286C4.73512 5.14286 5.14286 4.73512 5.14286 4.23214C5.14286 3.72917 4.73512 3.32143 4.23214 3.32143ZM2.57143 4.23214C2.57143 3.31496 3.31496 2.57143 4.23214 2.57143C5.14933 2.57143 5.89286 3.31496 5.89286 4.23214C5.89286 5.14933 5.14933 5.89286 4.23214 5.89286C3.31496 5.89286 2.57143 5.14933 2.57143 4.23214Z" fill="var(--fill-0, #989898)"/>
</svg>
