<svg preserveAspectRatio="none" width="100%" height="100%" overflow="visible" style="display: block;" viewBox="0 0 32 32" fill="none" xmlns="http://www.w3.org/2000/svg">
<g id="Frame">
<path id="Vector" d="M20.6246 2.142C20.3346 2.046 20.0406 1.954 19.7406 1.874C18.5526 1.554 17.3086 1.38 16.0207 1.38C15.4727 1.38 14.9307 1.414 14.3967 1.476C13.0907 1.626 11.8367 1.948 10.6627 2.424L17.4766 9.238L18.0746 9.836L19.3366 11.1C19.4726 11.198 19.6066 11.302 19.7306 11.408C20.0646 11.698 20.3646 12.024 20.6226 12.384V2.142H20.6246ZM19.7326 6.81L19.7166 6.796H19.7326V6.81Z" fill="var(--fill-0, white)"/>
<path id="Vector_2" d="M28.872 9.344C28.736 9.068 28.59 8.796 28.436 8.528C27.824 7.464 27.066 6.458 26.156 5.55C25.77 5.16 25.36 4.8 24.94 4.468C23.912 3.65 22.798 2.994 21.63 2.5V12.136V12.984V14.768C21.656 14.934 21.674 15.1 21.688 15.266C21.72 15.706 21.7 16.148 21.63 16.588L28.872 9.344ZM24.94 12.016V11.994L24.95 12.006L24.94 12.016Z" fill="var(--fill-0, white)"/>
<path id="Vector_3" d="M29.618 20.44C29.72 20.148 29.81 19.854 29.89 19.56C30.208 18.372 30.386 17.128 30.386 15.84C30.386 15.29 30.346 14.748 30.286 14.216C30.136 12.91 29.814 11.656 29.338 10.48L22.524 17.294L21.928 17.892L20.662 19.156C20.562 19.292 20.462 19.424 20.352 19.546C20.064 19.884 19.736 20.18 19.38 20.44H29.618ZM24.95 19.548L24.966 19.534V19.548H24.95Z" fill="var(--fill-0, white)"/>
<path id="Vector_4" d="M22.3383 28.7603C22.6123 28.6243 22.8843 28.4803 23.1523 28.3263C24.2163 27.7123 25.2203 26.9543 26.1303 26.0443C26.5183 25.6583 26.8783 25.2483 27.2103 24.8303C28.0283 23.8003 28.6863 22.6863 29.1803 21.5163H19.5443H18.7003H16.9143C16.7483 21.5443 16.5843 21.5623 16.4163 21.5763C15.9763 21.6103 15.5343 21.5883 15.0963 21.5183L22.3383 28.7603ZM19.6663 24.8303H19.6863L19.6783 24.8383L19.6663 24.8303Z" fill="var(--fill-0, white)"/>
<path id="Vector_5" d="M11.3763 29.4858C11.6683 29.5838 11.9603 29.6718 12.2603 29.7518C13.4463 30.0738 14.6923 30.2458 15.9783 30.2458C16.5283 30.2458 17.0703 30.2138 17.6043 30.1518C18.9083 30.0018 20.1623 29.6798 21.3383 29.2018L14.5243 22.3878L13.9263 21.7918L12.6623 20.5258C12.5283 20.4278 12.3963 20.3238 12.2703 20.2178C11.9363 19.9298 11.6383 19.6018 11.3763 19.2418V29.4858ZM12.2683 24.8158L12.2843 24.8318H12.2683V24.8158Z" fill="var(--fill-0, white)"/>
<path id="Vector_6" d="M3.11734 22.2138C3.25334 22.4898 3.39934 22.7578 3.55334 23.0278C4.16534 24.0918 4.92134 25.0958 5.83134 26.0058C6.22134 26.3938 6.62934 26.7518 7.04934 27.0878C8.07934 27.9058 9.19534 28.5618 10.3613 29.0578V19.4218V18.5758V16.7898C10.3333 16.6258 10.3153 16.4578 10.3013 16.2938C10.2693 15.8518 10.2893 15.4098 10.3613 14.9718L3.11734 22.2138ZM7.04934 19.5418V19.5638L7.03934 19.5518L7.04934 19.5418Z" fill="var(--fill-0, white)"/>
<path id="Vector_7" d="M2.38033 11.1937C2.28233 11.4837 2.19233 11.7777 2.11233 12.0757C1.79233 13.2637 1.61633 14.5097 1.61633 15.7957C1.61633 16.3457 1.65233 16.8877 1.71233 17.4217C1.86233 18.7277 2.18633 19.9817 2.66233 21.1577L9.47633 14.3397L10.0743 13.7417L11.3363 12.4797C11.4363 12.3437 11.5403 12.2117 11.6463 12.0837C11.9343 11.7497 12.2623 11.4517 12.6203 11.1937H2.38033ZM7.04833 12.0837L7.03433 12.0977V12.0837H7.04833Z" fill="var(--fill-0, white)"/>
<path id="Vector_8" d="M9.592 2.92367C9.318 3.05967 9.046 3.20567 8.78 3.35967C7.714 3.97167 6.71 4.72967 5.8 5.63767C5.412 6.02567 5.052 6.43567 4.718 6.85567C3.9 7.88367 3.244 8.99967 2.75 10.1677H12.386H13.232H15.02C15.184 10.1397 15.348 10.1197 15.514 10.1077C15.954 10.0737 16.398 10.0957 16.834 10.1677L9.592 2.92367ZM12.266 6.85567H12.244L12.254 6.84567L12.266 6.85567Z" fill="var(--fill-0, white)"/>
</g>
</svg>
