<svg preserveAspectRatio="none" width="100%" height="100%" overflow="visible" style="display: block;" viewBox="0 0 32 32" fill="none" xmlns="http://www.w3.org/2000/svg">
<g id="&#228;&#191;&#157;&#229;&#173;&#152;">
<path id="Vector" d="M27 26H5C4.73478 26 4.48043 26.1054 4.29289 26.2929C4.10536 26.4804 4 26.7348 4 27C4 27.2652 4.10536 27.5196 4.29289 27.7071C4.48043 27.8946 4.73478 28 5 28H27C27.2652 28 27.5196 27.8946 27.7071 27.7071C27.8946 27.5196 28 27.2652 28 27C28 26.7348 27.8946 26.4804 27.7071 26.2929C27.5196 26.1054 27.2652 26 27 26ZM25.04 12.52H20V5.06C20 4.77887 19.8883 4.50926 19.6895 4.31047C19.4907 4.11168 19.2211 4 18.94 4H12.94C12.6802 4.0296 12.4404 4.15422 12.2669 4.34989C12.0934 4.54556 11.9983 4.79848 12 5.06V12.52H6.96C6.76957 12.5136 6.58169 12.5652 6.42127 12.668C6.26084 12.7708 6.13545 12.92 6.0617 13.0957C5.98796 13.2713 5.96934 13.4653 6.00833 13.6518C6.04731 13.8383 6.14206 14.0086 6.28 14.14L15.32 23.2C15.5049 23.3715 15.7478 23.4668 16 23.4668C16.2522 23.4668 16.4951 23.3715 16.68 23.2L25.72 14.14C25.8579 14.0086 25.9527 13.8383 25.9917 13.6518C26.0307 13.4653 26.012 13.2713 25.9383 13.0957C25.8645 12.92 25.7392 12.7708 25.5787 12.668C25.4183 12.5652 25.2304 12.5136 25.04 12.52V12.52Z" fill="var(--fill-0, white)"/>
</g>
</svg>
