<svg preserveAspectRatio="none" width="100%" height="100%" overflow="visible" style="display: block;" viewBox="0 0 10.6429 10.6429" fill="none" xmlns="http://www.w3.org/2000/svg">
<path id="Vector (Stroke)" fill-rule="evenodd" clip-rule="evenodd" d="M7.95463 0.125405C8.12184 -0.0418018 8.39294 -0.0418018 8.56014 0.125405L10.5174 2.08271C10.6847 2.24992 10.6847 2.52102 10.5174 2.68822L5.62418 7.58149C5.54389 7.66179 5.43498 7.7069 5.32143 7.7069H3.36412C3.12765 7.7069 2.93596 7.5152 2.93596 7.27873V5.32143C2.93596 5.20787 2.98107 5.09897 3.06137 5.01867L7.95463 0.125405ZM3.79228 5.49878V6.85057H5.14408L9.60918 2.38547L8.25739 1.03367L3.79228 5.49878ZM1.40681 1.83498C1.26081 1.83498 1.12079 1.89297 1.01756 1.99621C0.91432 2.09945 0.856322 2.23947 0.856322 2.38547V9.23604C0.856322 9.38204 0.91432 9.52206 1.01756 9.6253C1.12079 9.72854 1.26081 9.78653 1.40681 9.78653H8.25739C8.40339 9.78653 8.54341 9.72854 8.64664 9.6253C8.74988 9.52206 8.80788 9.38204 8.80788 9.23604V6.62304C8.80788 6.38657 8.99957 6.19488 9.23604 6.19488C9.47251 6.19488 9.6642 6.38657 9.6642 6.62304V9.23604C9.6642 9.60915 9.51599 9.96698 9.25216 10.2308C8.98833 10.4946 8.6305 10.6429 8.25739 10.6429H1.40681C1.0337 10.6429 0.675875 10.4946 0.412046 10.2308C0.148218 9.96698 0 9.60915 0 9.23604V2.38547C0 2.01236 0.148217 1.65453 0.412046 1.3907C0.675875 1.12687 1.0337 0.978653 1.40681 0.978653H4.01982C4.25629 0.978653 4.44798 1.17035 4.44798 1.40681C4.44798 1.64328 4.25629 1.83498 4.01982 1.83498H1.40681Z" fill="var(--fill-0, white)"/>
</svg>
