<svg preserveAspectRatio="none" width="100%" height="100%" overflow="visible" style="display: block;" viewBox="0 0 31.4965 25.418" fill="none" xmlns="http://www.w3.org/2000/svg">
<path id="Vector" d="M22.0113 7.96641C22.2187 7.96641 22.4262 7.97344 22.6301 7.98398C21.7723 3.45937 17.0648 0 11.3836 0C5.09766 0 0 4.23984 0 9.47109C0 12.3223 1.53281 14.8922 3.93398 16.6289C4.03302 16.6988 4.11379 16.7915 4.16947 16.8992C4.22515 17.0069 4.25411 17.1264 4.25391 17.2477C4.25391 17.332 4.23633 17.4094 4.21523 17.4902C4.02187 18.2039 3.71602 19.3465 3.70195 19.3992C3.67734 19.4906 3.64219 19.582 3.64219 19.677C3.64219 19.8844 3.81094 20.0566 4.02187 20.0566C4.10273 20.0566 4.16953 20.025 4.23984 19.9863L6.73242 18.5484C6.91875 18.4395 7.11914 18.3727 7.33711 18.3727C7.44961 18.3727 7.56211 18.3902 7.67109 18.4219C8.83477 18.7559 10.0898 18.9422 11.3871 18.9422C11.598 18.9422 11.8055 18.9387 12.0129 18.9281C11.7633 18.1898 11.6297 17.4129 11.6297 16.6078C11.6297 11.8336 16.2773 7.96641 22.0113 7.96641V7.96641ZM15.1805 4.92539C16.0172 4.92539 16.6992 5.60391 16.6992 6.44062C16.6992 7.27734 16.0207 7.95586 15.1805 7.95586C14.3437 7.95586 13.6617 7.27734 13.6617 6.44062C13.6617 5.60391 14.3437 4.92539 15.1805 4.92539ZM7.59023 7.95586C6.75352 7.95586 6.07148 7.27734 6.07148 6.44062C6.07148 5.60391 6.75 4.92539 7.59023 4.92539C8.43047 4.92539 9.10898 5.60391 9.10898 6.44062C9.10898 7.27734 8.42695 7.95586 7.59023 7.95586ZM28.2199 22.5668C30.2203 21.1184 31.4965 18.9809 31.4965 16.6008C31.4965 12.2414 27.2496 8.7082 22.0078 8.7082C16.7695 8.7082 12.5191 12.2414 12.5191 16.6008C12.5191 20.9602 16.766 24.4934 22.0078 24.4934C23.0906 24.4934 24.1383 24.3387 25.1051 24.0609C25.1965 24.0328 25.2879 24.0188 25.3828 24.0188C25.5656 24.0188 25.7309 24.075 25.8855 24.1629L27.9633 25.3582C28.023 25.3934 28.0793 25.418 28.1461 25.418C28.1878 25.4183 28.2291 25.4104 28.2677 25.3947C28.3063 25.379 28.3415 25.3559 28.3711 25.3266C28.4004 25.2969 28.4236 25.2618 28.4392 25.2232C28.4549 25.1846 28.4628 25.1432 28.4625 25.1016C28.4625 25.0242 28.4309 24.9469 28.4133 24.8695C28.4027 24.8273 28.1461 23.8746 27.9844 23.277C27.9668 23.2102 27.9527 23.1434 27.9527 23.0766C27.9562 22.8691 28.0617 22.6828 28.2199 22.5668V22.5668ZM18.8508 15.3422C18.1512 15.3422 17.5852 14.7762 17.5852 14.0801C17.5852 13.384 18.1512 12.818 18.8508 12.818C19.5504 12.818 20.1164 13.384 20.1164 14.0801C20.1164 14.7762 19.5469 15.3422 18.8508 15.3422ZM25.1754 15.3422C24.4758 15.3422 23.9098 14.7762 23.9098 14.0801C23.9098 13.384 24.4758 12.818 25.1754 12.818C25.875 12.818 26.441 13.384 26.441 14.0801C26.4393 14.4149 26.3054 14.7355 26.0683 14.9719C25.8312 15.2084 25.5102 15.3415 25.1754 15.3422V15.3422Z" fill="var(--fill-0, white)"/>
</svg>
