<svg preserveAspectRatio="none" width="100%" height="100%" overflow="visible" style="display: block;" viewBox="0 0 68 13" fill="none" xmlns="http://www.w3.org/2000/svg">
<g id="Symbols">
<g id="Battery">
<path id="Rectangle" fill-rule="evenodd" clip-rule="evenodd" d="M46.0894 0.559998H60.9106C62.1587 0.559998 62.6113 0.689953 63.0676 0.933983C63.5239 1.17801 63.882 1.53612 64.126 1.99241C64.37 2.44871 64.5 2.90131 64.5 4.14944V8.47056C64.5 9.71868 64.37 10.1713 64.126 10.6276C63.882 11.0839 63.5239 11.442 63.0676 11.686C62.6113 11.93 62.1587 12.06 60.9106 12.06H46.0894C44.8413 12.06 44.3887 11.93 43.9324 11.686C43.4761 11.442 43.118 11.0839 42.874 10.6276C42.63 10.1713 42.5 9.71868 42.5 8.47056V4.14944C42.5 2.90131 42.63 2.44871 42.874 1.99241C43.118 1.53612 43.4761 1.17801 43.9324 0.933983C44.3887 0.689953 44.8413 0.559998 46.0894 0.559998ZM46.0894 1.56C45.1025 1.56 44.7579 1.62653 44.404 1.8158C44.122 1.96663 43.9066 2.18198 43.7558 2.46401C43.5665 2.8179 43.5 3.16246 43.5 4.14944V8.47056C43.5 9.45754 43.5665 9.80209 43.7558 10.156C43.9066 10.438 44.122 10.6534 44.404 10.8042C44.7579 10.9935 45.1025 11.06 46.0894 11.06H60.9106C61.8975 11.06 62.2421 10.9935 62.596 10.8042C62.878 10.6534 63.0934 10.438 63.2442 10.156C63.4335 9.80209 63.5 9.45754 63.5 8.47056V4.14944C63.5 3.16246 63.4335 2.8179 63.2442 2.46401C63.0934 2.18198 62.878 1.96663 62.596 1.8158C62.2421 1.62653 61.8975 1.56 60.9106 1.56H46.0894ZM67 6.25C67 7.48657 65.5 8.25 65.5 8.25V4.25C65.5 4.25 67 5.01343 67 6.25Z" fill="var(--fill-0, white)"/>
<rect id="Rectangle_2" x="44.5" y="2.47666" width="18" height="7.66667" rx="1.6" fill="var(--fill-0, white)"/>
</g>
<path id="Combined Shape" fill-rule="evenodd" clip-rule="evenodd" d="M14.123 1.96589C14.1 2.08181 14.1 2.22121 14.1 2.5V10.2C14.1 10.4788 14.1 10.6182 14.123 10.7341C14.2177 11.2101 14.5899 11.5823 15.0659 11.6769C15.1818 11.7 15.3212 11.7 15.6 11.7C15.8788 11.7 16.0182 11.7 16.1341 11.6769C16.6101 11.5823 16.9822 11.2101 17.0769 10.7341C17.1 10.6182 17.1 10.4788 17.1 10.2V2.5C17.1 2.22121 17.1 2.08181 17.0769 1.96589C16.9822 1.48986 16.6101 1.11775 16.1341 1.02306C16.0182 1 15.8788 1 15.6 1C15.3212 1 15.1818 1 15.0659 1.02306C14.5899 1.11775 14.2177 1.48986 14.123 1.96589ZM9.39999 4.9C9.39999 4.62121 9.39999 4.48181 9.42305 4.36589C9.51774 3.88986 9.88986 3.51775 10.3659 3.42306C10.4818 3.4 10.6212 3.4 10.9 3.4C11.1788 3.4 11.3182 3.4 11.4341 3.42306C11.9101 3.51775 12.2822 3.88986 12.3769 4.36589C12.4 4.48181 12.4 4.62121 12.4 4.9V10.2C12.4 10.4788 12.4 10.6182 12.3769 10.7341C12.2822 11.2101 11.9101 11.5823 11.4341 11.6769C11.3182 11.7 11.1788 11.7 10.9 11.7C10.6212 11.7 10.4818 11.7 10.3659 11.6769C9.88986 11.5823 9.51774 11.2101 9.42305 10.7341C9.39999 10.6182 9.39999 10.4788 9.39999 10.2V4.9ZM4.82305 6.6659C4.79999 6.78182 4.79999 6.92121 4.79999 7.2V10.2C4.79999 10.4788 4.79999 10.6182 4.82305 10.7341C4.91773 11.2101 5.28985 11.5823 5.76588 11.6769C5.8818 11.7 6.02119 11.7 6.29999 11.7C6.57878 11.7 6.71818 11.7 6.8341 11.6769C7.31012 11.5823 7.68224 11.2101 7.77693 10.7341C7.79999 10.6182 7.79999 10.4788 7.79999 10.2V7.2C7.79999 6.92121 7.79999 6.78182 7.77693 6.6659C7.68224 6.18987 7.31012 5.81775 6.8341 5.72306C6.71818 5.7 6.57878 5.7 6.29999 5.7C6.02119 5.7 5.8818 5.7 5.76588 5.72306C5.28985 5.81775 4.91773 6.18987 4.82305 6.6659ZM0.0230577 8.6659C0 8.78182 0 8.92121 0 9.2V10.2C0 10.4788 0 10.6182 0.0230577 10.7341C0.117746 11.2101 0.489863 11.5823 0.965892 11.6769C1.08181 11.7 1.22121 11.7 1.5 11.7C1.77879 11.7 1.91819 11.7 2.03411 11.6769C2.51014 11.5823 2.88225 11.2101 2.97694 10.7341C3 10.6182 3 10.4788 3 10.2V9.2C3 8.92121 3 8.78182 2.97694 8.6659C2.88225 8.18987 2.51014 7.81775 2.03411 7.72306C1.91819 7.7 1.77879 7.7 1.5 7.7C1.22121 7.7 1.08181 7.7 0.965892 7.72306C0.489863 7.81775 0.117746 8.18987 0.0230577 8.6659Z" fill="var(--fill-0, white)"/>
<path id="Wi-Fi" fill-rule="evenodd" clip-rule="evenodd" d="M29.8004 3.09636C32.0348 3.09646 34.1838 3.95501 35.8032 5.49457C35.9251 5.61343 36.12 5.61193 36.2401 5.49121L37.4058 4.31479C37.4666 4.25356 37.5005 4.17062 37.5 4.08433C37.4995 3.99803 37.4646 3.91549 37.4031 3.85498C33.1528 -0.218328 26.4474 -0.218328 22.1971 3.85498C22.1355 3.91545 22.1006 3.99796 22.1 4.08426C22.0994 4.17055 22.1333 4.25352 22.1941 4.31479L23.3601 5.49121C23.4801 5.61211 23.6751 5.61361 23.797 5.49457C25.4166 3.95491 27.5658 3.09635 29.8004 3.09636V3.09636ZM29.8004 6.92375C31.0281 6.92367 32.2119 7.37998 33.122 8.20402C33.245 8.32097 33.4389 8.31844 33.5589 8.19831L34.7232 7.02189C34.7845 6.96019 34.8186 6.87648 34.8177 6.78949C34.8168 6.7025 34.7811 6.6195 34.7185 6.55906C31.9474 3.98131 27.6558 3.98131 24.8847 6.55906C24.8221 6.6195 24.7864 6.70255 24.7856 6.78956C24.7847 6.87657 24.8189 6.96028 24.8803 7.02189L26.0443 8.19831C26.1643 8.31844 26.3582 8.32097 26.4813 8.20402C27.3907 7.38053 28.5736 6.92425 29.8004 6.92375V6.92375ZM32.038 9.73135C32.1002 9.67023 32.1345 9.58614 32.1327 9.49891C32.131 9.41168 32.0933 9.32905 32.0286 9.27053C30.7423 8.18263 28.8585 8.18263 27.5723 9.27053C27.5075 9.329 27.4698 9.4116 27.4679 9.49883C27.4661 9.58606 27.5003 9.67019 27.5625 9.73135L29.5769 11.7639C29.6359 11.8236 29.7164 11.8572 29.8004 11.8572C29.8844 11.8572 29.9649 11.8236 30.0239 11.7639L32.038 9.73135Z" fill="var(--fill-0, white)"/>
</g>
</svg>
